<svg width="0" height="0" class="hidden">
  <symbol viewBox="0 0 14 14"  xmlns="http://www.w3.org/2000/svg" id="form-input-tel">
    <path d="M11.996 9.123l-1.838-.21a1.44 1.44 0 0 0-1.187.412l-1.332 1.332a10.888 10.888 0 0 1-4.769-4.77L4.21 4.55a1.44 1.44 0 0 0 .413-1.187l-.21-1.824a1.448 1.448 0 0 0-1.44-1.28H1.72C.902.257.222.937.272 1.754c.384 6.18 5.326 11.116 11.5 11.5.817.05 1.498-.63 1.498-1.448v-1.252a1.434 1.434 0 0 0-1.274-1.432z"
      ></path>
  </symbol>
  <symbol viewBox="0 0 30 30" fill="none" xmlns="http://www.w3.org/2000/svg" id="close-button">
    <circle cx="15" cy="15" r="15" fill="#fff"></circle>
    <circle cx="15" cy="15" r="14.5" stroke="#000" stroke-opacity=".1"></circle>
    <path d="M21 10.108L19.892 9 15.5 13.392 11.108 9 10 10.108l4.392 4.392L10 18.892 11.108 20l4.392-4.392L19.892 20 21 18.892 16.608 14.5 21 10.108z" fill="#000"></path>
  </symbol>
  <symbol viewBox="0 0 16 12" xmlns="http://www.w3.org/2000/svg" id="form-input-email">
    <path d="M14 0H2C1.175 0 .507.675.507 1.5l-.007 9c0 .825.675 1.5 1.5 1.5h12c.825 0 1.5-.675 1.5-1.5v-9C15.5.675 14.825 0 14 0zm-.3 3.188L8.398 6.502a.759.759 0 0 1-.795 0L2.3 3.187a.637.637 0 1 1 .675-1.08L8 5.25l5.025-3.143a.637.637 0 1 1 .675 1.08z"
    ></path>
  </symbol>
  <symbol viewBox="0 0 16 15" xmlns="http://www.w3.org/2000/svg" id="form-input-is-checkbox">
    <path d="M14.222 1.667v11.666H1.778V1.667h12.444zm0-1.667H1.778C.8 0 0 .75 0 1.667v11.666C0 14.25.8 15 1.778 15h12.444C15.2 15 16 14.25 16 13.333V1.667C16 .75 15.2 0 14.222 0z" ></path>
  </symbol>
  <symbol viewBox="0 0 12 12" xmlns="http://www.w3.org/2000/svg" id="form-input-name">
    <path d="M6 6a3 3 0 1 0 0-6 3 3 0 1 0 0 6zm0 1.5c-2.002 0-6 1.005-6 3v.75c0 .412.338.75.75.75h10.5c.412 0 .75-.338.75-.75v-.75c0-1.995-3.998-3-6-3z" ></path>
  </symbol>
</svg>